<svg width="664" height="644" viewBox="0 0 664 644" fill="none" xmlns="http://www.w3.org/2000/svg">
<path fill-rule="evenodd" clip-rule="evenodd" d="M178.94 155.929C246.003 229.372 137.945 283.482 52.3278 400.558C-33.2889 517.639 117.313 603.35 117.313 603.35C299.755 670.312 682.008 606.241 559.62 465.378C437.236 324.517 852.513 34.324 553.053 9.03922C520.371 6.27973 489.585 4.99726 460.727 5C225.159 5.00274 119.194 90.4962 178.94 155.929Z" fill="url(#paint0_linear)"/>
<path fill-rule="evenodd" clip-rule="evenodd" d="M174.915 584C174.915 584 -5.16001 464.524 19.2804 394.82C43.722 325.116 186.533 504.25 193 573.123L174.913 584H174.915Z" fill="#DE8486"/>
<path fill-rule="evenodd" clip-rule="evenodd" d="M183.844 579C138.316 539.756 97.8412 489.156 71.8871 453.606C43.7682 415.078 26.18 385.416 26 385.142L26.2024 385C26.3824 385.3 43.9706 415.01 72.0671 453.468C98.0212 489.019 138.496 539.618 184 578.816L183.842 579H183.844Z" fill="#122C64"/>
<path fill-rule="evenodd" clip-rule="evenodd" d="M71.3627 451.789L71.2283 451.717L23 432.004L23.0908 431.771L71.1823 451.44L80.5162 399L80.765 399.046L71.3627 451.789ZM99.6144 488.897L99.4776 488.849L46.9337 471.361L47.0009 471.131L99.4328 488.55L109.241 426.925L109.488 426.971L99.6144 488.897ZM132.269 527.398L132.133 527.35L80.9902 508.38L81.081 508.123L132.088 527.073L141.828 467.515L142.054 467.535L132.269 527.398ZM175.502 571L175.323 570.934L128.948 550.06L129.038 549.825L175.255 570.632L175.752 522.808H176L175.502 571Z" fill="#122C64"/>
<path fill-rule="evenodd" clip-rule="evenodd" d="M143.861 532.98C143.861 532.98 120.14 466.786 121.024 440L129.927 450.916L156.366 536.437L157 542L147.939 539.663L143.861 532.979V532.98Z" fill="#6D68B7"/>
<path fill-rule="evenodd" clip-rule="evenodd" d="M168.725 583.96C168.725 583.96 83.285 383.281 141.043 338.699C198.801 294.117 221.246 523.823 189.612 585L168.725 583.96Z" fill="#DE8486"/>
<path fill-rule="evenodd" clip-rule="evenodd" d="M178.777 585C161.957 526.377 155.39 461.004 152.822 416.48C150.052 368.248 151.258 333.44 151.281 333H151.526C151.526 333.345 150.298 368.155 153.068 416.48C155.614 460.982 162.203 526.329 179 584.931L178.777 585Z" fill="#122C64"/>
<path fill-rule="evenodd" clip-rule="evenodd" d="M153.077 415.67L152.986 415.532L123.092 372.138L123.296 372L153.1 415.279L189.2 377.001L189.383 377.162L153.077 415.67ZM156.828 462.315L156.737 462.199L122 418.228L122.183 418.09L156.851 461.923L198.293 416.27L198.475 416.454L156.828 462.315ZM163.512 512.576L163.443 512.46L130.685 468.03L130.866 467.891L163.534 512.207L203.817 468.214L204 468.375L163.512 512.576ZM176.356 573L176.242 572.841L148.53 529.516L148.712 529.375L176.356 572.541L202.521 533.133L202.726 533.273L176.356 573Z" fill="#122C64"/>
<path fill-rule="evenodd" clip-rule="evenodd" d="M71 499C71 499 162.76 535.529 197 568.162L189.452 576L73.5005 509.707L82.5952 510.476L71 499Z" fill="#6E69B8"/>
<path fill-rule="evenodd" clip-rule="evenodd" d="M186.626 591C186.626 591 11.3943 582.135 0.4933 523.27C-10.4077 464.404 162.639 530.413 195 575.887L186.626 591Z" fill="#DE8486"/>
<path fill-rule="evenodd" clip-rule="evenodd" d="M190 584C142.201 575.445 93.3641 556.657 60.7983 542.39C25.5195 526.94 1.22521 513.347 1 513.21V513C1.22521 513.117 25.5207 526.729 60.7759 542.16C93.3192 556.425 142.134 575.21 189.932 583.764L190 584Z" fill="#122C64"/>
<path fill-rule="evenodd" clip-rule="evenodd" d="M17.0238 547.971L17 547.721L58.9333 541.414L44.4784 501.093L44.7053 501L59.2753 541.597L59.1387 541.618L17.0238 547.971ZM49.828 565.379L49.7829 565.15L93.879 555.473L76.0534 508.566L76.304 508.475L94.2199 555.657L94.0833 555.681L49.828 565.379ZM88.8252 576.964L88.7789 576.711L132.512 568.684L115.459 523.224L115.686 523.132L132.829 568.869L132.692 568.889L88.8252 576.964ZM139.568 586L139.523 585.77L180.614 581L161.741 547.582L161.946 547.467L181 581.206L139.568 586Z" fill="#122C64"/>
<path fill-rule="evenodd" clip-rule="evenodd" d="M450.592 138.44C450.592 138.44 417.861 102.443 441.86 67.8686C441.86 67.8686 474.165 93.5823 457.44 130.634L450.592 138.44ZM480.621 111.853C480.621 111.853 461.42 69.1494 496.524 43.3767C496.524 43.3767 518.845 76.3045 489.918 106.489L480.621 111.853ZM471.555 123.825C471.555 123.825 509.497 155.543 550.176 136.868C550.176 136.868 523.767 106.345 480.935 118.334L471.555 123.825ZM503.703 99.2786C503.703 99.2786 550.239 119.506 581.933 90.3967C581.933 90.3967 546.629 68.1486 510.532 91.4511L503.703 99.2786ZM522.547 72.3119C522.547 72.3119 572.407 65.0544 578.105 24.1217C578.105 24.1217 535.726 23.8535 522.737 62.1985L522.547 72.3119Z" fill="white"/>
<g clip-path="url(#clip0)">
<path d="M143 593.801V107.877H468.062V593.801H143Z" fill="#96C5EE" stroke="#021550" stroke-width="10"/>
<path d="M381.75 611.632L138 598.8V102.877L381.75 90.0446V611.632Z" fill="#021550"/>
<path d="M361.375 377.636C363.042 377.636 364.393 376.284 364.393 374.616C364.393 372.949 363.042 371.597 361.375 371.597C359.708 371.597 358.356 372.949 358.356 374.616C358.356 376.284 359.708 377.636 361.375 377.636Z" fill="#535461"/>
<path d="M361.375 375.069L363.465 378.692L365.563 382.315H361.375H357.187L359.285 378.692L361.375 375.069Z" fill="#535461"/>
<path d="M392.315 611.633L377.388 611.588L377.977 90.0453H392.315V611.633Z" fill="#021550"/>
<path opacity="0.1" d="M361.375 362.539C366.793 362.539 371.185 358.146 371.185 352.726C371.185 347.307 366.793 342.913 361.375 342.913C355.957 342.913 351.565 347.307 351.565 352.726C351.565 358.146 355.957 362.539 361.375 362.539Z" fill="black"/>
<path d="M361.375 361.029C366.793 361.029 371.185 356.636 371.185 351.217C371.185 345.797 366.793 341.404 361.375 341.404C355.957 341.404 351.565 345.797 351.565 351.217C351.565 356.636 355.957 361.029 361.375 361.029Z" fill="#535461"/>
<path d="M399.077 239.117V244.521L421.913 230.104L419.513 227.085L418.396 227.741L400.73 201.851V186.83L394.006 187.433V185.033C376.272 164.607 374.438 187.433 378.105 194.046C381.773 200.658 388.482 205.489 388.482 205.489C392.255 208.637 398.76 232.414 400.352 238.377L399.077 239.117Z" fill="url(#paint1_linear)"/>
<path d="M547.229 227.107L544.112 224.994H543.976L541.146 216.585L540.12 216.623L536.603 209.595C539.634 208.098 542.379 206.083 544.716 203.64C550.21 198.22 555.22 188.92 553.983 173.197C553.726 169.944 559.092 161.52 543.033 157.142C542.555 152.585 540.673 148.289 537.648 144.849C534.622 141.409 530.602 138.994 526.144 137.939C519.938 136.397 513.529 135.837 507.15 136.279C494.826 137.328 484.02 146.386 484.02 158.757C484.02 158.757 480.299 159.905 480.096 172.11H480.571C478.338 181.128 479.777 190.663 484.569 198.62C489.362 206.578 497.117 212.306 506.131 214.547L506.342 215.815C506.561 215.936 506.787 216.042 507.014 216.147L509.278 222.05L501.965 226.443L487.295 226.926C480.532 227.159 473.864 228.588 467.599 231.146C454.166 236.543 429.708 241.721 429.708 241.721L421.912 230.572L399.092 246.303L414.109 269.242C416.509 271.058 419.135 272.555 421.92 273.695H421.988H422.071L422.75 273.967C426.464 275.407 430.308 276.484 434.228 277.183C443.284 279.002 456.868 280.353 473.87 277.794L473.749 277.756L474.172 277.704L479.273 381.115H479.605L477.168 398.824C453.132 428.919 446.521 516.049 446.521 516.049L482.088 618.336C481.416 621.257 478.715 627.567 467.855 631.991C453.298 637.916 478.179 642.211 478.179 642.211L500.818 635.259C502.69 639.033 513.202 644.008 513.202 644.008L558.247 642.807V620.57H557.643C557.643 620.57 561.846 580.323 558.843 571.914C555.839 563.505 558.843 522.654 558.843 522.654L561.243 435.546C569.649 418.729 569.649 404.311 563.046 390.49C561.058 386.292 559.782 381.792 559.273 377.175C561.084 372.91 561.846 365.906 560.028 354.447C554.624 320.374 572.042 286.256 572.042 286.256C574.089 275.052 572.833 263.494 568.427 252.991C564.022 242.489 556.656 233.495 547.229 227.107ZM520.363 625.748L515.292 607.549L514.138 607.874L492.162 515.445L512.583 472.797V513.648L523.993 593.547V620.57C523.27 622.591 522.016 624.379 520.363 625.748Z" fill="url(#paint2_linear)"/>
<path d="M403.612 194.808V209.263L420.796 234.444L403.612 245.623C403.612 245.623 395.975 216.185 391.863 212.72C391.863 212.72 385.395 208.101 381.871 201.753C378.347 195.404 380.105 173.469 397.153 193.095V195.404L403.612 194.808Z" fill="#FFE0D1"/>
<path d="M540.392 229.221L533.6 215.634C533.4 215.235 533.098 214.896 532.724 214.652C532.35 214.408 531.918 214.267 531.472 214.245L505.678 212.901C505.258 212.879 504.839 212.963 504.46 213.144C504.08 213.326 503.752 213.599 503.505 213.94C503.258 214.28 503.101 214.677 503.047 215.095C502.993 215.512 503.044 215.936 503.195 216.328L509.859 233.561C510.056 234.071 510.414 234.503 510.878 234.791C511.342 235.08 511.888 235.21 512.432 235.161L538.407 232.852C538.811 232.808 539.198 232.667 539.536 232.441C539.874 232.215 540.152 231.911 540.347 231.555C540.542 231.198 540.648 230.8 540.656 230.393C540.664 229.987 540.573 229.585 540.392 229.221Z" fill="#FFE0D1"/>
<path d="M538.513 223.378L542.897 236.248L497.83 234.633L515.141 224.239L538.513 223.378Z" fill="white"/>
<path d="M423.965 236.362L421.656 233.478L402.035 245.019V250.22L423.965 236.362Z" fill="white"/>
<path d="M556.534 364.056C556.534 364.056 553.236 377.198 559.552 390.475C565.869 403.753 565.899 417.604 557.824 433.765L555.538 517.46C555.538 517.46 552.655 556.711 555.538 564.788C558.42 572.865 554.383 611.542 554.383 611.542H522.069V585.576L511.104 508.81V469.559L491.483 510.538L513.979 605.202L484.548 617.324L447.616 511.12C447.616 511.12 453.962 427.424 477.047 398.567L481.379 367.106L556.534 364.056Z" fill="#2A2B2A"/>
<path d="M554.964 632.904V611.55H522.069C522.069 611.55 519.76 620.208 504.758 621.936C489.755 623.665 511.715 634.059 511.715 634.059L554.964 632.904Z" fill="#333333"/>
<path d="M519.435 619.611L513.708 599.035L482.013 607.859C482.013 607.859 482.111 616.819 468.12 622.51C454.128 628.201 478.043 632.323 478.043 632.323L519.435 619.611Z" fill="#333333"/>
<path opacity="0.1" d="M481.386 368.834L556.534 365.815C555.605 370.295 555.414 374.897 555.968 379.44C552.526 387.531 545.154 385.312 545.154 385.312L479.401 383.289L481.386 368.834Z" fill="black"/>
<path d="M541.403 231.455L544.422 233.486C553.485 239.626 560.565 248.272 564.799 258.369C569.032 268.466 570.235 279.577 568.261 290.347C568.261 290.347 551.523 323.099 556.722 355.851C561.922 388.603 545.184 383.561 545.184 383.561L479.107 381.53L474.202 282.157C474.202 282.157 434.387 287.826 416.494 273.967L402.065 251.926L423.995 236.83L431.497 247.533C431.497 247.533 454.996 242.566 467.901 237.335C473.916 234.875 480.318 233.498 486.812 233.267L541.403 231.455Z" fill="#0084D0"/>
<path opacity="0.1" d="M540.822 391.343C540.822 391.343 544.859 411.543 521.782 445.027L540.822 391.343Z" fill="black"/>
<path opacity="0.1" d="M473.885 282.255C473.885 282.255 446.189 273.024 434.07 273.024C421.95 273.024 423.973 278.262 423.973 278.262C423.973 278.262 443.299 286.867 473.885 282.255Z" fill="#737373"/>
<path opacity="0.1" d="M505.293 214.056L516.319 215.377C516.666 215.423 516.983 215.86 517.171 216.54C514.749 220.91 511.715 223.522 508.425 223.522C507.249 223.507 506.097 223.187 505.082 222.593L504.237 217.491C503.95 215.785 504.516 213.966 505.293 214.056Z" fill="black"/>
<path d="M512.983 222.359C531.571 222.359 546.64 207.287 546.64 188.694C546.64 170.101 531.571 155.029 512.983 155.029C494.395 155.029 479.326 170.101 479.326 188.694C479.326 207.287 494.395 222.359 512.983 222.359Z" fill="#FFE0D1"/>
<path opacity="0.1" d="M484.359 169.635L486.057 171.19C486.779 171.85 487.323 172.682 487.638 173.609C487.953 174.535 488.03 175.526 487.861 176.49C487.691 177.454 487.282 178.36 486.67 179.123C486.058 179.887 485.263 180.484 484.359 180.859C484.359 180.859 499.452 195.955 501.535 198.741C503.618 201.526 501.188 208.908 501.188 208.908C501.188 208.908 494.524 221.182 529.585 218.374C529.585 218.374 552.723 213.468 550.27 182.255C550.021 179.13 555.175 171.031 539.75 166.827C539.293 162.447 537.485 158.319 534.579 155.012C531.672 151.706 527.809 149.385 523.525 148.371C517.564 146.888 511.407 146.348 505.278 146.771C499.562 147.27 494.242 149.896 490.369 154.129C486.495 158.363 484.351 163.896 484.359 169.635Z" fill="black"/>
<path d="M483.627 167.793C483.627 167.793 480.058 168.895 479.854 180.625L484.933 180.278C484.933 180.278 496.69 211.731 495.453 207.633C490.925 192.536 499.981 195.359 502.116 198.167C504.252 200.975 501.769 208.335 501.769 208.335C501.769 208.335 495.113 220.586 530.166 217.8C530.166 217.8 553.304 212.894 550.851 181.682C550.602 178.557 555.756 170.457 540.331 166.253C539.874 161.874 538.067 157.745 535.16 154.439C532.253 151.132 528.39 148.811 524.107 147.797C518.145 146.315 511.988 145.775 505.859 146.197C494.011 147.209 483.627 155.904 483.627 167.793Z" fill="#B97C00"/>
<path opacity="0.1" d="M177.86 102.16V601.141" stroke="#98C5ED" stroke-width="2" stroke-miterlimit="10"/>
<path opacity="0.1" d="M220.875 99.141V602.65" stroke="#98C5ED" stroke-width="2" stroke-miterlimit="10"/>
<path opacity="0.1" d="M263.89 96.8765V605.549" stroke="#98C5ED" stroke-width="2" stroke-miterlimit="10"/>
<path opacity="0.1" d="M306.905 94.612V608.689" stroke="#98C5ED" stroke-width="2" stroke-miterlimit="10"/>
<path opacity="0.1" d="M349.919 92.3475V609.323" stroke="#96C5EE" stroke-width="2" stroke-miterlimit="10"/>
<g clip-path="url(#clip1)">
<path d="M233.72 187.472C233.358 187.489 232.99 187.367 232.702 187.104C232.124 186.576 232.083 185.682 232.61 185.103L255.552 159.96C256.08 159.382 256.974 159.341 257.552 159.869C258.13 160.396 258.171 161.29 257.643 161.869L234.701 187.012C234.438 187.301 234.082 187.456 233.72 187.472Z" fill="#535461"/>
<path d="M295.116 186.648C294.754 186.665 294.385 186.543 294.097 186.279L268.959 163.331C268.381 162.804 268.34 161.91 268.868 161.331C269.395 160.753 270.289 160.712 270.867 161.24L296.005 184.188C296.584 184.716 296.624 185.61 296.097 186.188C295.834 186.477 295.478 186.632 295.116 186.648Z" fill="#535461"/>
<path d="M264.156 166.577C267.28 166.434 269.697 163.785 269.554 160.661C269.411 157.536 266.763 155.118 263.639 155.261C260.515 155.404 258.098 158.053 258.241 161.177C258.384 164.302 261.032 166.719 264.156 166.577Z" fill="#DE8486"/>
<path d="M304.587 186.717L220.513 190.556L222.486 233.763L306.56 229.924L304.587 186.717Z" fill="#DE8486"/>
<path d="M237.373 226.076C233.736 226.243 230.627 223.108 230.444 219.09L229.645 201.599C229.461 197.58 232.271 194.176 235.908 194.01C239.546 193.843 242.654 196.978 242.838 200.996L243.636 218.487C243.82 222.506 241.01 225.91 237.373 226.076ZM236.042 196.925C233.86 197.024 232.173 199.067 232.283 201.478L233.082 218.969C233.192 221.38 235.058 223.261 237.24 223.161C239.422 223.062 241.108 221.019 240.998 218.608L240.199 201.117C240.089 198.706 238.224 196.825 236.042 196.925Z" fill="white"/>
<path d="M255.103 215.749C251.313 215.922 248.082 212.832 247.901 208.859L247.572 201.655C247.39 197.683 250.326 194.31 254.116 194.137C257.906 193.964 261.136 197.055 261.318 201.027L261.647 208.232C261.828 212.204 258.892 215.576 255.103 215.749ZM254.247 197.019C251.974 197.123 250.212 199.146 250.321 201.53L250.65 208.734C250.759 211.117 252.698 212.972 254.971 212.868C257.245 212.764 259.006 210.74 258.898 208.357L258.569 201.153C258.46 198.77 256.521 196.915 254.247 197.019Z" fill="white"/>
<path d="M267.271 226.612C266.927 226.627 266.617 225.976 266.58 225.154L265.222 195.427C265.185 194.605 265.434 193.928 265.778 193.912C266.122 193.896 266.432 194.548 266.47 195.37L267.827 225.097C267.865 225.919 267.616 226.596 267.271 226.612Z" fill="white"/>
<path d="M297.156 226.831C296.811 226.846 296.502 226.195 296.464 225.373L295.107 195.646C295.069 194.824 295.318 194.147 295.662 194.131C296.007 194.115 296.316 194.767 296.354 195.589L297.711 225.316C297.749 226.138 297.5 226.815 297.156 226.831Z" fill="white"/>
<path d="M285.202 226.743C284.858 226.759 284.548 226.107 284.51 225.285L283.153 195.558C283.115 194.736 283.365 194.059 283.709 194.044C284.053 194.028 284.363 194.679 284.4 195.501L285.758 225.228C285.795 226.05 285.546 226.727 285.202 226.743Z" fill="white"/>
<path d="M248.985 226.485C248.444 226.51 247.975 225.868 247.938 225.048L247.194 208.753C247.156 207.934 247.565 207.252 248.106 207.227C248.646 207.203 249.115 207.845 249.153 208.664L249.897 224.959C249.934 225.778 249.526 226.46 248.985 226.485Z" fill="white"/>
<path d="M278.461 211.134L266.642 211.674C265.827 211.711 265.143 211.25 265.115 210.643C265.087 210.036 265.727 209.515 266.542 209.477L278.361 208.938C279.176 208.9 279.861 209.361 279.888 209.968C279.916 210.576 279.277 211.097 278.461 211.134Z" fill="white"/>
<path d="M278.571 196.188L266.752 196.728C265.936 196.765 265.252 196.305 265.224 195.697C265.196 195.09 265.836 194.569 266.651 194.532L278.47 193.992C279.286 193.955 279.97 194.415 279.998 195.023C280.025 195.63 279.386 196.151 278.571 196.188Z" fill="white"/>
<path d="M278.352 226.08L266.533 226.62C265.717 226.657 265.033 226.196 265.005 225.589C264.978 224.981 265.617 224.46 266.433 224.423L278.251 223.883C279.067 223.846 279.751 224.307 279.779 224.914C279.807 225.521 279.167 226.043 278.352 226.08Z" fill="white"/>
<path d="M296.441 226.229C295.918 226.253 295.407 225.931 295.174 225.369L283.288 196.699C282.984 195.963 283.274 195.1 283.937 194.77C284.603 194.441 285.384 194.769 285.689 195.505L297.574 224.175C297.879 224.911 297.589 225.774 296.926 226.104C296.77 226.182 296.605 226.222 296.441 226.229Z" fill="white"/>
</g>
<path d="M500.984 147.744C497.37 153.708 490.046 183.406 478.971 177.221C469.203 171.765 465.893 157.557 478.971 156.425C478.971 168.125 493.428 145.073 500.984 147.744Z" fill="#B97C00"/>
<path d="M431.5 246.359L424 236.859L402 251.5C405.5 257.667 414.5 270.8 416.5 274C438 288.5 468 282 474 282.5C490.5 263 484.5 230.859 467.5 236.859C450.5 242.859 443 243.525 431.5 246.359Z" fill="#006FD0"/>
<rect x="398.327" y="253.904" width="35.9296" height="5" rx="2.5" transform="rotate(-33.6403 398.327 253.904)" fill="#006FD0"/>
</g>
<defs>
<linearGradient id="paint0_linear" x1="27.6078" y1="317.5" x2="932.732" y2="317.5" gradientUnits="userSpaceOnUse">
<stop stop-color="#726DBC"/>
<stop offset="1" stop-color="#231C7C"/>
</linearGradient>
<linearGradient id="paint1_linear" x1="399.213" y1="244.521" x2="399.213" y2="176.738" gradientUnits="userSpaceOnUse">
<stop stop-color="#808080" stop-opacity="0.25"/>
<stop offset="0.54" stop-color="#808080" stop-opacity="0.12"/>
<stop offset="1" stop-color="#808080" stop-opacity="0.1"/>
</linearGradient>
<linearGradient id="paint2_linear" x1="134825" y1="415040" x2="134825" y2="73300.6" gradientUnits="userSpaceOnUse">
<stop stop-color="#808080" stop-opacity="0.25"/>
<stop offset="0.54" stop-color="#808080" stop-opacity="0.12"/>
<stop offset="1" stop-color="#808080" stop-opacity="0.1"/>
</linearGradient>
<clipPath id="clip0">
<rect width="435" height="554" fill="white" transform="translate(138 90)"/>
</clipPath>
<clipPath id="clip1">
<rect width="82.1053" height="82.1253" fill="white" transform="matrix(0.998958 -0.0456275 0.0456051 0.99896 220.769 155.4)"/>
</clipPath>
</defs>
</svg>
